<svg xmlns="http://www.w3.org/2000/svg" viewBox="0 0 900 675" width="900" height="675">
<rect width="900" height="675" fill="#150F2E"/>
<g opacity="0.9">
<path d="M588 203 L787 203 L687 44 Z" fill="#FF2E7E" opacity="0.57"/>
<circle cx="337" cy="46" r="111" fill="#FF2E7E" opacity="0.6"/>
<circle cx="683" cy="142" r="145" fill="#FF2E7E" opacity="0.41"/>
<circle cx="835" cy="260" r="65" fill="#4CC9F0" opacity="0.22"/>
<path d="M400 482 a51 51 0 0 1 101 0" fill="none" stroke="#FF2E7E" stroke-width="13" opacity="0.46"/>
<path d="M473 122 a57 57 0 0 1 113 0" fill="none" stroke="#FF2E7E" stroke-width="15" opacity="0.41"/>
<circle cx="592" cy="24" r="79" fill="#4CC9F0" opacity="0.55"/>
<circle cx="549" cy="260" r="78" fill="#FF2E7E" opacity="0.51"/>
<path d="M495 463 L727 463 L611 278 Z" fill="#FF2E7E" opacity="0.27"/>
<path d="M128 129 L233 129 L181 45 Z" fill="#4CC9F0" opacity="0.29"/>
<path d="M27 560 a137 137 0 0 1 274 0" fill="none" stroke="#FF2E7E" stroke-width="36" opacity="0.25"/>
<circle cx="833" cy="576" r="134" fill="#FF2E7E" opacity="0.43"/>
<path d="M645 346 a111 111 0 0 1 221 0" fill="none" stroke="#4CC9F0" stroke-width="29" opacity="0.41"/>
<circle cx="589" cy="452" r="52" fill="#FF2E7E" opacity="0.25"/>
</g>
<line x1="0" y1="0" x2="0" y2="675" stroke="#F3EEFF" stroke-opacity="0.05" stroke-width="1"/>
<line x1="46" y1="0" x2="46" y2="675" stroke="#F3EEFF" stroke-opacity="0.05" stroke-width="1"/>
<line x1="92" y1="0" x2="92" y2="675" stroke="#F3EEFF" stroke-opacity="0.05" stroke-width="1"/>
<line x1="138" y1="0" x2="138" y2="675" stroke="#F3EEFF" stroke-opacity="0.05" stroke-width="1"/>
<line x1="184" y1="0" x2="184" y2="675" stroke="#F3EEFF" stroke-opacity="0.05" stroke-width="1"/>
<line x1="230" y1="0" x2="230" y2="675" stroke="#F3EEFF" stroke-opacity="0.05" stroke-width="1"/>
<line x1="276" y1="0" x2="276" y2="675" stroke="#F3EEFF" stroke-opacity="0.05" stroke-width="1"/>
<line x1="322" y1="0" x2="322" y2="675" stroke="#F3EEFF" stroke-opacity="0.05" stroke-width="1"/>
<line x1="368" y1="0" x2="368" y2="675" stroke="#F3EEFF" stroke-opacity="0.05" stroke-width="1"/>
<line x1="414" y1="0" x2="414" y2="675" stroke="#F3EEFF" stroke-opacity="0.05" stroke-width="1"/>
<line x1="460" y1="0" x2="460" y2="675" stroke="#F3EEFF" stroke-opacity="0.05" stroke-width="1"/>
<line x1="506" y1="0" x2="506" y2="675" stroke="#F3EEFF" stroke-opacity="0.05" stroke-width="1"/>
<line x1="552" y1="0" x2="552" y2="675" stroke="#F3EEFF" stroke-opacity="0.05" stroke-width="1"/>
<line x1="598" y1="0" x2="598" y2="675" stroke="#F3EEFF" stroke-opacity="0.05" stroke-width="1"/>
<line x1="644" y1="0" x2="644" y2="675" stroke="#F3EEFF" stroke-opacity="0.05" stroke-width="1"/>
<line x1="690" y1="0" x2="690" y2="675" stroke="#F3EEFF" stroke-opacity="0.05" stroke-width="1"/>
<line x1="736" y1="0" x2="736" y2="675" stroke="#F3EEFF" stroke-opacity="0.05" stroke-width="1"/>
<line x1="782" y1="0" x2="782" y2="675" stroke="#F3EEFF" stroke-opacity="0.05" stroke-width="1"/>
<line x1="828" y1="0" x2="828" y2="675" stroke="#F3EEFF" stroke-opacity="0.05" stroke-width="1"/>
<line x1="874" y1="0" x2="874" y2="675" stroke="#F3EEFF" stroke-opacity="0.05" stroke-width="1"/>
<rect width="900" height="675" fill="url(#g56)"/>
<defs><linearGradient id="g56" x1="0" y1="0" x2="0" y2="1"><stop offset="0" stop-color="#150F2E" stop-opacity="0.05"/><stop offset="1" stop-color="#150F2E" stop-opacity="0.75"/></linearGradient></defs>
<text x="450" y="649" text-anchor="middle" font-family="monospace" font-size="14" fill="#F3EEFF" fill-opacity="0.5" letter-spacing="4">GALERIA 6</text>
</svg>