<svg xmlns="http://www.w3.org/2000/svg" viewBox="0 0 900 675" width="900" height="675">
<rect width="900" height="675" fill="#150F2E"/>
<g opacity="0.9">
<path d="M452 326 L692 326 L572 134 Z" fill="#4CC9F0" opacity="0.33"/>
<circle cx="772" cy="25" r="56" fill="#FF2E7E" opacity="0.6"/>
<rect x="793" y="38" width="83" height="13" rx="7" fill="#4CC9F0" opacity="0.28"/>
<path d="M114 237 a126 126 0 0 1 251 0" fill="none" stroke="#4CC9F0" stroke-width="33" opacity="0.54"/>
<circle cx="299" cy="103" r="128" fill="#FF2E7E" opacity="0.41"/>
<path d="M890 443 L999 443 L945 357 Z" fill="#FF2E7E" opacity="0.2"/>
<path d="M821 400 a134 134 0 0 1 268 0" fill="none" stroke="#FF2E7E" stroke-width="35" opacity="0.56"/>
<circle cx="677" cy="64" r="144" fill="#4CC9F0" opacity="0.5"/>
<rect x="231" y="38" width="170" height="27" rx="14" fill="#FF2E7E" opacity="0.52"/>
<path d="M883 222 a79 79 0 0 1 158 0" fill="none" stroke="#4CC9F0" stroke-width="20" opacity="0.26"/>
<path d="M843 117 L962 117 L902 22 Z" fill="#4CC9F0" opacity="0.31"/>
<circle cx="351" cy="52" r="51" fill="#FF2E7E" opacity="0.45"/>
<path d="M538 626 L665 626 L602 524 Z" fill="#4CC9F0" opacity="0.5"/>
<path d="M383 121 L506 121 L445 23 Z" fill="#FF2E7E" opacity="0.32"/>
</g>
<line x1="0" y1="0" x2="0" y2="675" stroke="#F3EEFF" stroke-opacity="0.05" stroke-width="1"/>
<line x1="46" y1="0" x2="46" y2="675" stroke="#F3EEFF" stroke-opacity="0.05" stroke-width="1"/>
<line x1="92" y1="0" x2="92" y2="675" stroke="#F3EEFF" stroke-opacity="0.05" stroke-width="1"/>
<line x1="138" y1="0" x2="138" y2="675" stroke="#F3EEFF" stroke-opacity="0.05" stroke-width="1"/>
<line x1="184" y1="0" x2="184" y2="675" stroke="#F3EEFF" stroke-opacity="0.05" stroke-width="1"/>
<line x1="230" y1="0" x2="230" y2="675" stroke="#F3EEFF" stroke-opacity="0.05" stroke-width="1"/>
<line x1="276" y1="0" x2="276" y2="675" stroke="#F3EEFF" stroke-opacity="0.05" stroke-width="1"/>
<line x1="322" y1="0" x2="322" y2="675" stroke="#F3EEFF" stroke-opacity="0.05" stroke-width="1"/>
<line x1="368" y1="0" x2="368" y2="675" stroke="#F3EEFF" stroke-opacity="0.05" stroke-width="1"/>
<line x1="414" y1="0" x2="414" y2="675" stroke="#F3EEFF" stroke-opacity="0.05" stroke-width="1"/>
<line x1="460" y1="0" x2="460" y2="675" stroke="#F3EEFF" stroke-opacity="0.05" stroke-width="1"/>
<line x1="506" y1="0" x2="506" y2="675" stroke="#F3EEFF" stroke-opacity="0.05" stroke-width="1"/>
<line x1="552" y1="0" x2="552" y2="675" stroke="#F3EEFF" stroke-opacity="0.05" stroke-width="1"/>
<line x1="598" y1="0" x2="598" y2="675" stroke="#F3EEFF" stroke-opacity="0.05" stroke-width="1"/>
<line x1="644" y1="0" x2="644" y2="675" stroke="#F3EEFF" stroke-opacity="0.05" stroke-width="1"/>
<line x1="690" y1="0" x2="690" y2="675" stroke="#F3EEFF" stroke-opacity="0.05" stroke-width="1"/>
<line x1="736" y1="0" x2="736" y2="675" stroke="#F3EEFF" stroke-opacity="0.05" stroke-width="1"/>
<line x1="782" y1="0" x2="782" y2="675" stroke="#F3EEFF" stroke-opacity="0.05" stroke-width="1"/>
<line x1="828" y1="0" x2="828" y2="675" stroke="#F3EEFF" stroke-opacity="0.05" stroke-width="1"/>
<line x1="874" y1="0" x2="874" y2="675" stroke="#F3EEFF" stroke-opacity="0.05" stroke-width="1"/>
<rect width="900" height="675" fill="url(#g53)"/>
<defs><linearGradient id="g53" x1="0" y1="0" x2="0" y2="1"><stop offset="0" stop-color="#150F2E" stop-opacity="0.05"/><stop offset="1" stop-color="#150F2E" stop-opacity="0.75"/></linearGradient></defs>
<text x="450" y="649" text-anchor="middle" font-family="monospace" font-size="14" fill="#F3EEFF" fill-opacity="0.5" letter-spacing="4">GALERIA 3</text>
</svg>