<svg xmlns="http://www.w3.org/2000/svg" viewBox="0 0 800 500" width="800" height="500">
<rect width="800" height="500" fill="#150F2E"/>
<g opacity="0.9">
<path d="M116 349 a57 57 0 0 1 113 0" fill="none" stroke="#B26BFF" stroke-width="15" opacity="0.19"/>
<circle cx="260" cy="165" r="38" fill="#B26BFF" opacity="0.47"/>
<rect x="481" y="271" width="227" height="36" rx="18" fill="#FF2E7E" opacity="0.4"/>
<path d="M669 477 a53 53 0 0 1 106 0" fill="none" stroke="#FF2E7E" stroke-width="14" opacity="0.21"/>
<circle cx="782" cy="56" r="49" fill="#B26BFF" opacity="0.19"/>
<circle cx="444" cy="113" r="81" fill="#B26BFF" opacity="0.49"/>
<path d="M428 406 a63 63 0 0 1 126 0" fill="none" stroke="#FF2E7E" stroke-width="16" opacity="0.42"/>
<circle cx="470" cy="115" r="66" fill="#B26BFF" opacity="0.28"/>
<rect x="341" y="35" width="163" height="26" rx="13" fill="#FF2E7E" opacity="0.52"/>
<path d="M562 45 a38 38 0 0 1 77 0" fill="none" stroke="#FF2E7E" stroke-width="10" opacity="0.46"/>
<rect x="116" y="28" width="187" height="30" rx="15" fill="#B26BFF" opacity="0.39"/>
<rect x="393" y="477" width="243" height="39" rx="19" fill="#FF2E7E" opacity="0.44"/>
<path d="M307 290 a71 71 0 0 1 141 0" fill="none" stroke="#B26BFF" stroke-width="18" opacity="0.53"/>
<rect x="517" y="69" width="116" height="18" rx="9" fill="#B26BFF" opacity="0.18"/>
</g>
<line x1="0" y1="0" x2="0" y2="500" stroke="#F3EEFF" stroke-opacity="0.05" stroke-width="1"/>
<line x1="46" y1="0" x2="46" y2="500" stroke="#F3EEFF" stroke-opacity="0.05" stroke-width="1"/>
<line x1="92" y1="0" x2="92" y2="500" stroke="#F3EEFF" stroke-opacity="0.05" stroke-width="1"/>
<line x1="138" y1="0" x2="138" y2="500" stroke="#F3EEFF" stroke-opacity="0.05" stroke-width="1"/>
<line x1="184" y1="0" x2="184" y2="500" stroke="#F3EEFF" stroke-opacity="0.05" stroke-width="1"/>
<line x1="230" y1="0" x2="230" y2="500" stroke="#F3EEFF" stroke-opacity="0.05" stroke-width="1"/>
<line x1="276" y1="0" x2="276" y2="500" stroke="#F3EEFF" stroke-opacity="0.05" stroke-width="1"/>
<line x1="322" y1="0" x2="322" y2="500" stroke="#F3EEFF" stroke-opacity="0.05" stroke-width="1"/>
<line x1="368" y1="0" x2="368" y2="500" stroke="#F3EEFF" stroke-opacity="0.05" stroke-width="1"/>
<line x1="414" y1="0" x2="414" y2="500" stroke="#F3EEFF" stroke-opacity="0.05" stroke-width="1"/>
<line x1="460" y1="0" x2="460" y2="500" stroke="#F3EEFF" stroke-opacity="0.05" stroke-width="1"/>
<line x1="506" y1="0" x2="506" y2="500" stroke="#F3EEFF" stroke-opacity="0.05" stroke-width="1"/>
<line x1="552" y1="0" x2="552" y2="500" stroke="#F3EEFF" stroke-opacity="0.05" stroke-width="1"/>
<line x1="598" y1="0" x2="598" y2="500" stroke="#F3EEFF" stroke-opacity="0.05" stroke-width="1"/>
<line x1="644" y1="0" x2="644" y2="500" stroke="#F3EEFF" stroke-opacity="0.05" stroke-width="1"/>
<line x1="690" y1="0" x2="690" y2="500" stroke="#F3EEFF" stroke-opacity="0.05" stroke-width="1"/>
<line x1="736" y1="0" x2="736" y2="500" stroke="#F3EEFF" stroke-opacity="0.05" stroke-width="1"/>
<line x1="782" y1="0" x2="782" y2="500" stroke="#F3EEFF" stroke-opacity="0.05" stroke-width="1"/>
<rect width="800" height="500" fill="url(#g32)"/>
<defs><linearGradient id="g32" x1="0" y1="0" x2="0" y2="1"><stop offset="0" stop-color="#150F2E" stop-opacity="0.05"/><stop offset="1" stop-color="#150F2E" stop-opacity="0.75"/></linearGradient></defs>
<text x="400" y="474" text-anchor="middle" font-family="monospace" font-size="13" fill="#F3EEFF" fill-opacity="0.5" letter-spacing="4">NOTICIA 2</text>
</svg>