<svg xmlns="http://www.w3.org/2000/svg" viewBox="0 0 1600 900" width="1600" height="900">
<rect width="1600" height="900" fill="#150F2E"/>
<g opacity="0.9">
<rect x="1052" y="600" width="187" height="30" rx="15" fill="#4CC9F0" opacity="0.18"/>
<path d="M438 729 L854 729 L646 397 Z" fill="#00D19A" opacity="0.43"/>
<circle cx="1058" cy="131" r="156" fill="#B26BFF" opacity="0.25"/>
<circle cx="922" cy="180" r="171" fill="#FFB300" opacity="0.52"/>
<path d="M1277 79 L1787 79 L1532 -330 Z" fill="#FF6B35" opacity="0.52"/>
<path d="M146 888 a261 261 0 0 1 522 0" fill="none" stroke="#FF6B35" stroke-width="68" opacity="0.23"/>
<path d="M863 794 a180 180 0 0 1 360 0" fill="none" stroke="#4CC9F0" stroke-width="47" opacity="0.59"/>
<path d="M812 75 a190 190 0 0 1 381 0" fill="none" stroke="#FF2E7E" stroke-width="49" opacity="0.46"/>
<path d="M975 487 L1369 487 L1172 171 Z" fill="#4CC9F0" opacity="0.21"/>
<rect x="570" y="327" width="415" height="66" rx="33" fill="#FFB300" opacity="0.46"/>
<rect x="376" y="327" width="341" height="55" rx="27" fill="#FF2E7E" opacity="0.52"/>
<path d="M45 740 a153 153 0 0 1 307 0" fill="none" stroke="#B26BFF" stroke-width="40" opacity="0.4"/>
<path d="M70 184 L450 184 L260 -121 Z" fill="#FFB300" opacity="0.5"/>
<path d="M125 246 a154 154 0 0 1 308 0" fill="none" stroke="#FFB300" stroke-width="40" opacity="0.39"/>
</g>
<line x1="0" y1="0" x2="0" y2="900" stroke="#F3EEFF" stroke-opacity="0.05" stroke-width="1"/>
<line x1="46" y1="0" x2="46" y2="900" stroke="#F3EEFF" stroke-opacity="0.05" stroke-width="1"/>
<line x1="92" y1="0" x2="92" y2="900" stroke="#F3EEFF" stroke-opacity="0.05" stroke-width="1"/>
<line x1="138" y1="0" x2="138" y2="900" stroke="#F3EEFF" stroke-opacity="0.05" stroke-width="1"/>
<line x1="184" y1="0" x2="184" y2="900" stroke="#F3EEFF" stroke-opacity="0.05" stroke-width="1"/>
<line x1="230" y1="0" x2="230" y2="900" stroke="#F3EEFF" stroke-opacity="0.05" stroke-width="1"/>
<line x1="276" y1="0" x2="276" y2="900" stroke="#F3EEFF" stroke-opacity="0.05" stroke-width="1"/>
<line x1="322" y1="0" x2="322" y2="900" stroke="#F3EEFF" stroke-opacity="0.05" stroke-width="1"/>
<line x1="368" y1="0" x2="368" y2="900" stroke="#F3EEFF" stroke-opacity="0.05" stroke-width="1"/>
<line x1="414" y1="0" x2="414" y2="900" stroke="#F3EEFF" stroke-opacity="0.05" stroke-width="1"/>
<line x1="460" y1="0" x2="460" y2="900" stroke="#F3EEFF" stroke-opacity="0.05" stroke-width="1"/>
<line x1="506" y1="0" x2="506" y2="900" stroke="#F3EEFF" stroke-opacity="0.05" stroke-width="1"/>
<line x1="552" y1="0" x2="552" y2="900" stroke="#F3EEFF" stroke-opacity="0.05" stroke-width="1"/>
<line x1="598" y1="0" x2="598" y2="900" stroke="#F3EEFF" stroke-opacity="0.05" stroke-width="1"/>
<line x1="644" y1="0" x2="644" y2="900" stroke="#F3EEFF" stroke-opacity="0.05" stroke-width="1"/>
<line x1="690" y1="0" x2="690" y2="900" stroke="#F3EEFF" stroke-opacity="0.05" stroke-width="1"/>
<line x1="736" y1="0" x2="736" y2="900" stroke="#F3EEFF" stroke-opacity="0.05" stroke-width="1"/>
<line x1="782" y1="0" x2="782" y2="900" stroke="#F3EEFF" stroke-opacity="0.05" stroke-width="1"/>
<line x1="828" y1="0" x2="828" y2="900" stroke="#F3EEFF" stroke-opacity="0.05" stroke-width="1"/>
<line x1="874" y1="0" x2="874" y2="900" stroke="#F3EEFF" stroke-opacity="0.05" stroke-width="1"/>
<line x1="920" y1="0" x2="920" y2="900" stroke="#F3EEFF" stroke-opacity="0.05" stroke-width="1"/>
<line x1="966" y1="0" x2="966" y2="900" stroke="#F3EEFF" stroke-opacity="0.05" stroke-width="1"/>
<line x1="1012" y1="0" x2="1012" y2="900" stroke="#F3EEFF" stroke-opacity="0.05" stroke-width="1"/>
<line x1="1058" y1="0" x2="1058" y2="900" stroke="#F3EEFF" stroke-opacity="0.05" stroke-width="1"/>
<line x1="1104" y1="0" x2="1104" y2="900" stroke="#F3EEFF" stroke-opacity="0.05" stroke-width="1"/>
<line x1="1150" y1="0" x2="1150" y2="900" stroke="#F3EEFF" stroke-opacity="0.05" stroke-width="1"/>
<line x1="1196" y1="0" x2="1196" y2="900" stroke="#F3EEFF" stroke-opacity="0.05" stroke-width="1"/>
<line x1="1242" y1="0" x2="1242" y2="900" stroke="#F3EEFF" stroke-opacity="0.05" stroke-width="1"/>
<line x1="1288" y1="0" x2="1288" y2="900" stroke="#F3EEFF" stroke-opacity="0.05" stroke-width="1"/>
<line x1="1334" y1="0" x2="1334" y2="900" stroke="#F3EEFF" stroke-opacity="0.05" stroke-width="1"/>
<line x1="1380" y1="0" x2="1380" y2="900" stroke="#F3EEFF" stroke-opacity="0.05" stroke-width="1"/>
<line x1="1426" y1="0" x2="1426" y2="900" stroke="#F3EEFF" stroke-opacity="0.05" stroke-width="1"/>
<line x1="1472" y1="0" x2="1472" y2="900" stroke="#F3EEFF" stroke-opacity="0.05" stroke-width="1"/>
<line x1="1518" y1="0" x2="1518" y2="900" stroke="#F3EEFF" stroke-opacity="0.05" stroke-width="1"/>
<line x1="1564" y1="0" x2="1564" y2="900" stroke="#F3EEFF" stroke-opacity="0.05" stroke-width="1"/>
<rect width="1600" height="900" fill="url(#g12)"/>
<defs><linearGradient id="g12" x1="0" y1="0" x2="0" y2="1"><stop offset="0" stop-color="#150F2E" stop-opacity="0.05"/><stop offset="1" stop-color="#150F2E" stop-opacity="0.75"/></linearGradient></defs>
<text x="800" y="874" text-anchor="middle" font-family="monospace" font-size="26" fill="#F3EEFF" fill-opacity="0.5" letter-spacing="4">IMAGEN PROVISIONAL · SLIDE 2</text>
</svg>